<svg width="2560" height="512" viewBox="0 0 2560 512" xmlns="http://www.w3.org/2000/svg">
  <g transform="translate(471 44) scale(0.828125)">
  <defs>
    <linearGradient id="bd-bg" x1="0" y1="0" x2="0" y2="1">
      <stop offset="0" stop-color="#121b2b"/>
      <stop offset="1" stop-color="#0b1220"/>
    </linearGradient>
  </defs>
  <rect width="512" height="512" rx="112" fill="url(#bd-bg)"/>
  <path fill="#3b82f6" fill-rule="evenodd" d="M160 112H298A54 54 0 0 1 298 220H160ZM204 140H240A26 26 0 0 1 240 192H204Z"/>
  <path fill="#e8c34a" d="M160 240H312L352 256 312 272H160Z"/>
  <path fill="#e0566f" fill-rule="evenodd" d="M160 292H298A54 54 0 0 1 298 400H160ZM204 320H240A26 26 0 0 1 240 372H204Z"/>
</g>
  <text x="975" y="333" font-family="'Helvetica Neue', Helvetica, Arial, sans-serif" font-weight="bold"
        font-size="216" letter-spacing="-5" fill="#0d1522">Brawl Draft</text>
</svg>